<svg xmlns="http://www.w3.org/2000/svg" xmlns:xlink="http://www.w3.org/1999/xlink" viewBox="188.92 96.51 550.26 732.98">
	<path fill="#E3342A" transform="scale(0.906539 0.906539)" d="M355.06 193.932C354.872 188.34 353.383 179.231 357.39 174.945C358.549 173.705 360.218 172.464 361.942 172.214C364.261 171.878 366.901 172.321 369.25 172.362L384.323 172.401L445.998 172.399C446.176 155.226 451.179 139.976 463.112 127.252C474.493 115.116 491.482 107.033 508.189 106.5C526.539 105.914 543.849 111.694 557.25 124.581C571.09 137.89 577.25 153.442 577.487 172.481L659.863 171.721C662.439 171.635 665.192 171.833 667.074 173.797C670.87 177.758 669.557 186.107 669.329 191.135L669.857 191.322C673.089 192.344 677.102 192.275 678.994 195.665C680.424 198.23 680.285 202.109 680.49 204.994C694.374 204.758 708.509 204.037 722.346 205.457C745.237 207.806 766.466 216.834 783.126 232.872C804.067 253.031 815.007 278.777 815.384 307.856L815.326 445.267L815.323 664.673L815.328 774.328L815.325 805.297C815.323 812.316 815.644 819.696 814.575 826.641C811.226 848.392 801.592 869.293 786.171 885.111C765.126 906.696 739.616 914.692 710 915.01L680.25 914.493L643.585 914.439L428.624 914.442L340.708 914.487L314.131 914.513C305.221 914.528 296.712 914.598 287.907 912.962C269.478 909.539 251.353 898.843 238.121 885.813C218.783 866.77 208.856 843.149 208.616 816L208.498 692.498L208.461 443.988L208.458 340.062L208.446 309.243C208.453 302.577 208.105 295.733 209.174 289.141C212.427 269.063 222.235 249.947 236.549 235.543C252.602 219.39 274.575 208.626 297.386 206.603C312.421 205.27 327.898 206.262 342.999 206.039C342.983 203.225 343.071 198.809 345.088 196.643C347.813 193.716 351.386 193.995 355.06 193.932Z"/>
	<path fill="#F6F6F6" transform="scale(0.906539 0.906539)" d="M606.069 449.258L633.16 449.019L633.426 462.504L504.75 462.232L477.344 462.262L477.362 449.502L606.069 449.258Z"/>
	<path fill="#F6F6F6" transform="scale(0.906539 0.906539)" d="M477.519 803.502L634.045 803.716L634.007 816.992L477.514 816.986L477.519 803.502Z"/>
	<path fill="#F6F6F6" transform="scale(0.906539 0.906539)" d="M477.533 626.314L633.891 626.493L633.895 639.963L477.514 639.986L477.533 626.314Z"/>
	<path fill="#F6F6F6" transform="scale(0.906539 0.906539)" d="M477.564 391.312L723.492 391.488L723.491 404.504L477.51 404.735L477.564 391.312Z"/>
	<path fill="#F6F6F6" transform="scale(0.906539 0.906539)" d="M477.542 569.5C497.013 569.496 721.196 568.638 723.171 569.66L723.223 582.735L477.574 582.612L477.542 569.5Z"/>
	<path fill="#F6F6F6" transform="scale(0.906539 0.906539)" d="M600.866 744.746L723.566 744.36L723.51 757.972L600.25 758.24L477.613 758.483C476.975 754.058 477.288 749.74 477.537 745.3L600.866 744.746Z"/>
	<path fill="#FCFBFB" transform="scale(0.906539 0.906539)" d="M669.329 191.135L669.857 191.322C673.089 192.344 677.102 192.275 678.994 195.665C680.424 198.23 680.285 202.109 680.49 204.994L677.338 254.918C676.768 263.473 677.148 273.326 674.685 281.553C671.95 290.685 666.613 299.265 659.46 305.611C652.645 311.657 644.91 315.314 635.867 316.569C625.249 318.043 613.434 316.999 602.649 316.988L536.318 316.968L439.368 316.981C424.031 316.991 408.211 318.033 392.943 317.025L384.797 316.038C373.593 314.184 361.362 305.582 354.894 296.437C351.205 291.22 348.366 285.455 346.942 279.203C345.308 272.023 345.777 263.385 345.406 256L342.999 206.039C342.983 203.225 343.071 198.809 345.088 196.643C347.813 193.716 351.386 193.995 355.06 193.932L355.644 209.926L357.68 250.823C358.015 258.188 357.463 265.971 359.066 273.188C361.413 283.754 367.062 292.034 376.262 297.861C380.95 300.829 386.098 303.207 391.68 303.711C402.598 304.698 414.083 304.015 425.054 304.019L487.326 304.022L590.947 304.021L617.876 304.005C623.48 303.999 629.803 304.578 635.252 303.258L636 303.068C641.259 301.762 646.087 299.023 650.23 295.553C655.727 290.95 660.153 284.696 662.25 277.806C663.674 273.129 663.864 268.356 664.162 263.511L665.288 243.91L669.329 191.135Z"/>
	<path fill="#F6F6F6" transform="scale(0.906539 0.906539)" d="M315.326 705.6C323.282 705.137 331.207 705.47 339.169 705.489L378.803 705.524L405.975 705.497C412.099 705.426 418.39 704.99 424.5 705.502C426.057 705.632 427.647 706.155 429 706.939C433.3 709.431 436.917 713.565 438.147 718.468C438.666 720.535 438.461 722.916 438.467 725.033L438.491 737.347L438.486 785.736L438.509 813.754C438.509 818.344 438.901 823.283 438.416 827.815C438.182 830.007 437.073 832.288 435.837 834.079C432.945 838.269 428.297 840.017 423.494 840.939L358.388 840.969C344.919 841.002 330.996 841.924 317.58 841.137C315.201 840.998 313.066 840.54 310.883 839.559C306.285 837.495 302.9 833.331 301.314 828.613C300.223 825.367 300.527 821.894 300.52 818.519L300.505 802.725L300.525 753.566C300.529 742.875 299.605 731.439 300.556 720.83C300.741 718.765 301.541 716.901 302.491 715.078C305.426 709.451 309.59 707.516 315.326 705.6Z"/>
	<path fill="#E3342A" transform="scale(0.906539 0.906539)" d="M404.461 737.249L417.165 750.486L360.923 807.814C359.959 807.498 359.165 806.342 358.471 805.612L352.477 799.185L340.383 787.576L326.819 773.028L341.124 759.223L361.378 779.239L404.461 737.249Z"/>
	<path fill="#F6F6F6" transform="scale(0.906539 0.906539)" d="M415.67 528.732C419.242 528.775 423.321 528.601 426.75 529.699C431.307 531.157 435.34 534.692 437.361 539.052C438.026 540.485 438.407 542.026 438.48 543.603L438.554 596.671L438.62 634.154L438.604 649.746C438.56 652.234 438.741 655.108 437.814 657.434L437.57 658C436.671 660.169 435.52 662.164 433.814 663.814C431.87 665.695 427.587 668.05 424.903 668.411C421.574 668.858 417.754 668.557 414.378 668.579L393.695 668.651L324.002 668.703C317.948 668.78 312.172 669.546 307.215 665.388C303.381 662.174 300.998 657.607 300.634 652.608C300.148 645.913 300.533 638.913 300.529 632.192L300.53 591.601L300.472 559.98C300.466 554.537 300.012 548.637 300.694 543.25C301.062 540.343 302.522 536.868 304.549 534.729C307.26 531.87 311.54 529.834 315.375 529.247C318.678 528.741 322.32 529.04 325.678 529.038L343.679 529.033L415.67 528.732Z"/>
	<path fill="#E3342A" transform="scale(0.906539 0.906539)" d="M404.047 558.24C409.445 561.808 414.172 567.423 418.719 572.004L359.646 630.225L340.729 610.966L326.054 596.466L340.47 582.426L359.456 601.722C361.645 601.128 398.773 563.451 404.047 558.24Z"/>
	<path fill="#F6F6F6" transform="scale(0.906539 0.906539)" d="M313.75 349.562L370.401 349.49L424 349.518C425.674 349.589 427.446 350.059 428.991 350.696C432.871 352.297 435.978 355.752 437.572 359.576C438.413 361.592 438.647 363.728 438.735 365.889L438.739 384.029L438.745 424.178L438.799 460.317L438.659 473.907C438.581 476.196 438.686 478.766 437.755 480.897C435.435 486.207 431.387 488.373 426.287 490.435L356.733 490.984L329.722 490.978C324.264 490.966 317.095 491.739 311.987 489.745C307.196 487.875 303.243 483.423 301.44 478.692C300.811 477.041 300.472 475.342 300.408 473.577L300.496 454.395L300.518 413.169L300.451 382.105C300.434 376.319 300.178 370.397 300.56 364.631C300.705 362.455 301.384 360.264 302.335 358.31C304.617 353.62 309.072 351.26 313.75 349.562Z"/>
	<path fill="#E3342A" transform="scale(0.906539 0.906539)" d="M403.488 384.229L417.15 398.07L360.303 454.529L341.046 434.971L326.214 420.492L339.75 406.988L360.29 426.995L403.488 384.229Z"/>
	<path fill="#E3342A" transform="scale(0.906539 0.906539)" d="M355.06 193.932C354.872 188.34 353.383 179.231 357.39 174.945C358.549 173.705 360.218 172.464 361.942 172.214C364.261 171.878 366.901 172.321 369.25 172.362L384.323 172.401L445.998 172.399C446.176 155.226 451.179 139.976 463.112 127.252C474.493 115.116 491.482 107.033 508.189 106.5C526.539 105.914 543.849 111.694 557.25 124.581C571.09 137.89 577.25 153.442 577.487 172.481L659.863 171.721C662.439 171.635 665.192 171.833 667.074 173.797C670.87 177.758 669.557 186.107 669.329 191.135L665.288 243.91L664.162 263.511C663.864 268.356 663.674 273.129 662.25 277.806C660.153 284.696 655.727 290.95 650.23 295.553C646.087 299.023 641.259 301.762 636 303.068L635.252 303.258C629.803 304.578 623.48 303.999 617.876 304.005L590.947 304.021L487.326 304.022L425.054 304.019C414.083 304.015 402.598 304.698 391.68 303.711C386.098 303.207 380.95 300.829 376.262 297.861C367.062 292.034 361.413 283.754 359.066 273.188C357.463 265.971 358.015 258.188 357.68 250.823L355.644 209.926L355.06 193.932Z"/>
	<path fill="#FCFBFB" transform="scale(0.906539 0.906539)" d="M510.325 122.208C520.362 121.481 530.923 124.514 539.25 130.156C550.682 137.902 557.985 148.791 560.709 162.25C562.585 171.522 560.743 179.536 558.677 188.516L653.013 188.311L648.794 247.75C648.345 255.014 648.761 263.493 647.158 270.519C646.324 274.171 644.375 277.805 641.75 280.457C638.686 283.552 634.881 285.639 630.578 286.406C625.84 287.249 620.885 286.967 616.09 286.972L593.566 286.986L512.859 286.975L431.974 286.979L409.847 287.192C403.816 287.267 397.674 287.47 391.701 286.487C388.309 285.928 385.234 284.098 382.682 281.844C379.324 278.879 376.685 275.134 375.617 270.731C373.678 262.737 374.343 253.362 373.896 245.145L370.593 188.34L464.399 188.251C463.266 184.171 462.392 180.196 461.954 175.977C460.614 163.092 464.78 150.445 472.982 140.5C482.572 128.873 495.669 123.678 510.325 122.208Z"/>
	<path fill="#E3342A" transform="scale(0.906539 0.906539)" d="M510.275 146.157C515.272 145.591 520.389 146.909 524.641 149.512C531.061 153.441 535.154 159.382 536.853 166.653C538.325 172.957 536.385 179.931 532.94 185.317C528.64 192.037 521.255 194.658 513.82 196.289C507.765 196.131 501.758 195.276 496.664 191.705C491.53 188.105 487.365 181.523 486.383 175.362C485.291 168.517 487.024 161.813 491.187 156.285C495.911 150.013 502.756 147.302 510.275 146.157Z"/>
</svg>